<?xml version="1.0" encoding="utf-8" standalone="no"?>
<!DOCTYPE svg PUBLIC "-//W3C//DTD SVG 1.1//EN"
  "http://www.w3.org/Graphics/SVG/1.1/DTD/svg11.dtd">
<!-- Created with matplotlib (http://matplotlib.org/) -->
<svg height="288pt" version="1.1" viewBox="0 0 576 288" width="576pt" xmlns="http://www.w3.org/2000/svg" xmlns:xlink="http://www.w3.org/1999/xlink">
 <defs>
  <style type="text/css">
*{stroke-linecap:butt;stroke-linejoin:round;}
  </style>
 </defs>
 <g id="figure_1">
  <g id="patch_1">
   <path d="M 0 288 
L 576 288 
L 576 0 
L 0 0 
z
" style="fill:#ffffff;"/>
  </g>
  <g id="axes_1">
   <g id="patch_2">
    <path d="M 72 252 
L 518.4 252 
L 518.4 34.56 
L 72 34.56 
z
" style="fill:#ffffff;"/>
   </g>
   <g id="matplotlib.axis_1">
    <g id="xtick_1">
     <g id="line2d_1">
      <path clip-path="url(#p1bbbb7761f)" d="M 104.067601 252 
L 104.067601 34.56 
" style="fill:none;stroke:#b0b0b0;stroke-linecap:square;stroke-width:0.8;"/>
     </g>
     <g id="line2d_2">
      <defs>
       <path d="M 0 0 
L 0 3.5 
" id="m4b7b64b67a" style="stroke:#000000;stroke-width:0.8;"/>
      </defs>
      <g>
       <use style="stroke:#000000;stroke-width:0.8;" x="104.067601" xlink:href="#m4b7b64b67a" y="252"/>
      </g>
     </g>
     <g id="text_1">
      <!-- Dec 11 -->
      <defs>
       <path d="M 19.671875 64.796875 
L 19.671875 8.109375 
L 31.59375 8.109375 
Q 46.6875 8.109375 53.6875 14.9375 
Q 60.6875 21.78125 60.6875 36.53125 
Q 60.6875 51.171875 53.6875 57.984375 
Q 46.6875 64.796875 31.59375 64.796875 
z
M 9.8125 72.90625 
L 30.078125 72.90625 
Q 51.265625 72.90625 61.171875 64.09375 
Q 71.09375 55.28125 71.09375 36.53125 
Q 71.09375 17.671875 61.125 8.828125 
Q 51.171875 0 30.078125 0 
L 9.8125 0 
z
" id="DejaVuSans-44"/>
       <path d="M 56.203125 29.59375 
L 56.203125 25.203125 
L 14.890625 25.203125 
Q 15.484375 15.921875 20.484375 11.0625 
Q 25.484375 6.203125 34.421875 6.203125 
Q 39.59375 6.203125 44.453125 7.46875 
Q 49.3125 8.734375 54.109375 11.28125 
L 54.109375 2.78125 
Q 49.265625 0.734375 44.1875 -0.34375 
Q 39.109375 -1.421875 33.890625 -1.421875 
Q 20.796875 -1.421875 13.15625 6.1875 
Q 5.515625 13.8125 5.515625 26.8125 
Q 5.515625 40.234375 12.765625 48.109375 
Q 20.015625 56 32.328125 56 
Q 43.359375 56 49.78125 48.890625 
Q 56.203125 41.796875 56.203125 29.59375 
z
M 47.21875 32.234375 
Q 47.125 39.59375 43.09375 43.984375 
Q 39.0625 48.390625 32.421875 48.390625 
Q 24.90625 48.390625 20.390625 44.140625 
Q 15.875 39.890625 15.1875 32.171875 
z
" id="DejaVuSans-65"/>
       <path d="M 48.78125 52.59375 
L 48.78125 44.1875 
Q 44.96875 46.296875 41.140625 47.34375 
Q 37.3125 48.390625 33.40625 48.390625 
Q 24.65625 48.390625 19.8125 42.84375 
Q 14.984375 37.3125 14.984375 27.296875 
Q 14.984375 17.28125 19.8125 11.734375 
Q 24.65625 6.203125 33.40625 6.203125 
Q 37.3125 6.203125 41.140625 7.25 
Q 44.96875 8.296875 48.78125 10.40625 
L 48.78125 2.09375 
Q 45.015625 0.34375 40.984375 -0.53125 
Q 36.96875 -1.421875 32.421875 -1.421875 
Q 20.0625 -1.421875 12.78125 6.34375 
Q 5.515625 14.109375 5.515625 27.296875 
Q 5.515625 40.671875 12.859375 48.328125 
Q 20.21875 56 33.015625 56 
Q 37.15625 56 41.109375 55.140625 
Q 45.0625 54.296875 48.78125 52.59375 
z
" id="DejaVuSans-63"/>
       <path id="DejaVuSans-20"/>
       <path d="M 12.40625 8.296875 
L 28.515625 8.296875 
L 28.515625 63.921875 
L 10.984375 60.40625 
L 10.984375 69.390625 
L 28.421875 72.90625 
L 38.28125 72.90625 
L 38.28125 8.296875 
L 54.390625 8.296875 
L 54.390625 0 
L 12.40625 0 
z
" id="DejaVuSans-31"/>
      </defs>
      <g transform="translate(93.55436 289.301735)rotate(-45)scale(0.1 -0.1)">
       <use xlink:href="#DejaVuSans-44"/>
       <use x="77.001953" xlink:href="#DejaVuSans-65"/>
       <use x="138.525391" xlink:href="#DejaVuSans-63"/>
       <use x="193.505859" xlink:href="#DejaVuSans-20"/>
       <use x="225.292969" xlink:href="#DejaVuSans-31"/>
       <use x="288.916016" xlink:href="#DejaVuSans-31"/>
      </g>
     </g>
    </g>
    <g id="xtick_2">
     <g id="line2d_3">
      <path clip-path="url(#p1bbbb7761f)" d="M 124.784221 252 
L 124.784221 34.56 
" style="fill:none;stroke:#b0b0b0;stroke-linecap:square;stroke-width:0.8;"/>
     </g>
     <g id="line2d_4">
      <g>
       <use style="stroke:#000000;stroke-width:0.8;" x="124.784221" xlink:href="#m4b7b64b67a" y="252"/>
      </g>
     </g>
     <g id="text_2">
      <!-- Dec 12 -->
      <defs>
       <path d="M 19.1875 8.296875 
L 53.609375 8.296875 
L 53.609375 0 
L 7.328125 0 
L 7.328125 8.296875 
Q 12.9375 14.109375 22.625 23.890625 
Q 32.328125 33.6875 34.8125 36.53125 
Q 39.546875 41.84375 41.421875 45.53125 
Q 43.3125 49.21875 43.3125 52.78125 
Q 43.3125 58.59375 39.234375 62.25 
Q 35.15625 65.921875 28.609375 65.921875 
Q 23.96875 65.921875 18.8125 64.3125 
Q 13.671875 62.703125 7.8125 59.421875 
L 7.8125 69.390625 
Q 13.765625 71.78125 18.9375 73 
Q 24.125 74.21875 28.421875 74.21875 
Q 39.75 74.21875 46.484375 68.546875 
Q 53.21875 62.890625 53.21875 53.421875 
Q 53.21875 48.921875 51.53125 44.890625 
Q 49.859375 40.875 45.40625 35.40625 
Q 44.1875 33.984375 37.640625 27.21875 
Q 31.109375 20.453125 19.1875 8.296875 
z
" id="DejaVuSans-32"/>
      </defs>
      <g transform="translate(114.27098 289.301735)rotate(-45)scale(0.1 -0.1)">
       <use xlink:href="#DejaVuSans-44"/>
       <use x="77.001953" xlink:href="#DejaVuSans-65"/>
       <use x="138.525391" xlink:href="#DejaVuSans-63"/>
       <use x="193.505859" xlink:href="#DejaVuSans-20"/>
       <use x="225.292969" xlink:href="#DejaVuSans-31"/>
       <use x="288.916016" xlink:href="#DejaVuSans-32"/>
      </g>
     </g>
    </g>
    <g id="xtick_3">
     <g id="line2d_5">
      <path clip-path="url(#p1bbbb7761f)" d="M 145.500841 252 
L 145.500841 34.56 
" style="fill:none;stroke:#b0b0b0;stroke-linecap:square;stroke-width:0.8;"/>
     </g>
     <g id="line2d_6">
      <g>
       <use style="stroke:#000000;stroke-width:0.8;" x="145.500841" xlink:href="#m4b7b64b67a" y="252"/>
      </g>
     </g>
     <g id="text_3">
      <!-- Dec 13 -->
      <defs>
       <path d="M 40.578125 39.3125 
Q 47.65625 37.796875 51.625 33 
Q 55.609375 28.21875 55.609375 21.1875 
Q 55.609375 10.40625 48.1875 4.484375 
Q 40.765625 -1.421875 27.09375 -1.421875 
Q 22.515625 -1.421875 17.65625 -0.515625 
Q 12.796875 0.390625 7.625 2.203125 
L 7.625 11.71875 
Q 11.71875 9.328125 16.59375 8.109375 
Q 21.484375 6.890625 26.8125 6.890625 
Q 36.078125 6.890625 40.9375 10.546875 
Q 45.796875 14.203125 45.796875 21.1875 
Q 45.796875 27.640625 41.28125 31.265625 
Q 36.765625 34.90625 28.71875 34.90625 
L 20.21875 34.90625 
L 20.21875 43.015625 
L 29.109375 43.015625 
Q 36.375 43.015625 40.234375 45.921875 
Q 44.09375 48.828125 44.09375 54.296875 
Q 44.09375 59.90625 40.109375 62.90625 
Q 36.140625 65.921875 28.71875 65.921875 
Q 24.65625 65.921875 20.015625 65.03125 
Q 15.375 64.15625 9.8125 62.3125 
L 9.8125 71.09375 
Q 15.4375 72.65625 20.34375 73.4375 
Q 25.25 74.21875 29.59375 74.21875 
Q 40.828125 74.21875 47.359375 69.109375 
Q 53.90625 64.015625 53.90625 55.328125 
Q 53.90625 49.265625 50.4375 45.09375 
Q 46.96875 40.921875 40.578125 39.3125 
z
" id="DejaVuSans-33"/>
      </defs>
      <g transform="translate(134.9876 289.301735)rotate(-45)scale(0.1 -0.1)">
       <use xlink:href="#DejaVuSans-44"/>
       <use x="77.001953" xlink:href="#DejaVuSans-65"/>
       <use x="138.525391" xlink:href="#DejaVuSans-63"/>
       <use x="193.505859" xlink:href="#DejaVuSans-20"/>
       <use x="225.292969" xlink:href="#DejaVuSans-31"/>
       <use x="288.916016" xlink:href="#DejaVuSans-33"/>
      </g>
     </g>
    </g>
    <g id="xtick_4">
     <g id="line2d_7">
      <path clip-path="url(#p1bbbb7761f)" d="M 166.217461 252 
L 166.217461 34.56 
" style="fill:none;stroke:#b0b0b0;stroke-linecap:square;stroke-width:0.8;"/>
     </g>
     <g id="line2d_8">
      <g>
       <use style="stroke:#000000;stroke-width:0.8;" x="166.217461" xlink:href="#m4b7b64b67a" y="252"/>
      </g>
     </g>
     <g id="text_4">
      <!-- Dec 14 -->
      <defs>
       <path d="M 37.796875 64.3125 
L 12.890625 25.390625 
L 37.796875 25.390625 
z
M 35.203125 72.90625 
L 47.609375 72.90625 
L 47.609375 25.390625 
L 58.015625 25.390625 
L 58.015625 17.1875 
L 47.609375 17.1875 
L 47.609375 0 
L 37.796875 0 
L 37.796875 17.1875 
L 4.890625 17.1875 
L 4.890625 26.703125 
z
" id="DejaVuSans-34"/>
      </defs>
      <g transform="translate(155.70422 289.301735)rotate(-45)scale(0.1 -0.1)">
       <use xlink:href="#DejaVuSans-44"/>
       <use x="77.001953" xlink:href="#DejaVuSans-65"/>
       <use x="138.525391" xlink:href="#DejaVuSans-63"/>
       <use x="193.505859" xlink:href="#DejaVuSans-20"/>
       <use x="225.292969" xlink:href="#DejaVuSans-31"/>
       <use x="288.916016" xlink:href="#DejaVuSans-34"/>
      </g>
     </g>
    </g>
    <g id="xtick_5">
     <g id="line2d_9">
      <path clip-path="url(#p1bbbb7761f)" d="M 186.934081 252 
L 186.934081 34.56 
" style="fill:none;stroke:#b0b0b0;stroke-linecap:square;stroke-width:0.8;"/>
     </g>
     <g id="line2d_10">
      <g>
       <use style="stroke:#000000;stroke-width:0.8;" x="186.934081" xlink:href="#m4b7b64b67a" y="252"/>
      </g>
     </g>
     <g id="text_5">
      <!-- Dec 15 -->
      <defs>
       <path d="M 10.796875 72.90625 
L 49.515625 72.90625 
L 49.515625 64.59375 
L 19.828125 64.59375 
L 19.828125 46.734375 
Q 21.96875 47.46875 24.109375 47.828125 
Q 26.265625 48.1875 28.421875 48.1875 
Q 40.625 48.1875 47.75 41.5 
Q 54.890625 34.8125 54.890625 23.390625 
Q 54.890625 11.625 47.5625 5.09375 
Q 40.234375 -1.421875 26.90625 -1.421875 
Q 22.3125 -1.421875 17.546875 -0.640625 
Q 12.796875 0.140625 7.71875 1.703125 
L 7.71875 11.625 
Q 12.109375 9.234375 16.796875 8.0625 
Q 21.484375 6.890625 26.703125 6.890625 
Q 35.15625 6.890625 40.078125 11.328125 
Q 45.015625 15.765625 45.015625 23.390625 
Q 45.015625 31 40.078125 35.4375 
Q 35.15625 39.890625 26.703125 39.890625 
Q 22.75 39.890625 18.8125 39.015625 
Q 14.890625 38.140625 10.796875 36.28125 
z
" id="DejaVuSans-35"/>
      </defs>
      <g transform="translate(176.420839 289.301735)rotate(-45)scale(0.1 -0.1)">
       <use xlink:href="#DejaVuSans-44"/>
       <use x="77.001953" xlink:href="#DejaVuSans-65"/>
       <use x="138.525391" xlink:href="#DejaVuSans-63"/>
       <use x="193.505859" xlink:href="#DejaVuSans-20"/>
       <use x="225.292969" xlink:href="#DejaVuSans-31"/>
       <use x="288.916016" xlink:href="#DejaVuSans-35"/>
      </g>
     </g>
    </g>
    <g id="xtick_6">
     <g id="line2d_11">
      <path clip-path="url(#p1bbbb7761f)" d="M 207.650701 252 
L 207.650701 34.56 
" style="fill:none;stroke:#b0b0b0;stroke-linecap:square;stroke-width:0.8;"/>
     </g>
     <g id="line2d_12">
      <g>
       <use style="stroke:#000000;stroke-width:0.8;" x="207.650701" xlink:href="#m4b7b64b67a" y="252"/>
      </g>
     </g>
     <g id="text_6">
      <!-- Dec 16 -->
      <defs>
       <path d="M 33.015625 40.375 
Q 26.375 40.375 22.484375 35.828125 
Q 18.609375 31.296875 18.609375 23.390625 
Q 18.609375 15.53125 22.484375 10.953125 
Q 26.375 6.390625 33.015625 6.390625 
Q 39.65625 6.390625 43.53125 10.953125 
Q 47.40625 15.53125 47.40625 23.390625 
Q 47.40625 31.296875 43.53125 35.828125 
Q 39.65625 40.375 33.015625 40.375 
z
M 52.59375 71.296875 
L 52.59375 62.3125 
Q 48.875 64.0625 45.09375 64.984375 
Q 41.3125 65.921875 37.59375 65.921875 
Q 27.828125 65.921875 22.671875 59.328125 
Q 17.53125 52.734375 16.796875 39.40625 
Q 19.671875 43.65625 24.015625 45.921875 
Q 28.375 48.1875 33.59375 48.1875 
Q 44.578125 48.1875 50.953125 41.515625 
Q 57.328125 34.859375 57.328125 23.390625 
Q 57.328125 12.15625 50.6875 5.359375 
Q 44.046875 -1.421875 33.015625 -1.421875 
Q 20.359375 -1.421875 13.671875 8.265625 
Q 6.984375 17.96875 6.984375 36.375 
Q 6.984375 53.65625 15.1875 63.9375 
Q 23.390625 74.21875 37.203125 74.21875 
Q 40.921875 74.21875 44.703125 73.484375 
Q 48.484375 72.75 52.59375 71.296875 
z
" id="DejaVuSans-36"/>
      </defs>
      <g transform="translate(197.137459 289.301735)rotate(-45)scale(0.1 -0.1)">
       <use xlink:href="#DejaVuSans-44"/>
       <use x="77.001953" xlink:href="#DejaVuSans-65"/>
       <use x="138.525391" xlink:href="#DejaVuSans-63"/>
       <use x="193.505859" xlink:href="#DejaVuSans-20"/>
       <use x="225.292969" xlink:href="#DejaVuSans-31"/>
       <use x="288.916016" xlink:href="#DejaVuSans-36"/>
      </g>
     </g>
    </g>
    <g id="xtick_7">
     <g id="line2d_13">
      <path clip-path="url(#p1bbbb7761f)" d="M 228.367321 252 
L 228.367321 34.56 
" style="fill:none;stroke:#b0b0b0;stroke-linecap:square;stroke-width:0.8;"/>
     </g>
     <g id="line2d_14">
      <g>
       <use style="stroke:#000000;stroke-width:0.8;" x="228.367321" xlink:href="#m4b7b64b67a" y="252"/>
      </g>
     </g>
     <g id="text_7">
      <!-- Dec 17 -->
      <defs>
       <path d="M 8.203125 72.90625 
L 55.078125 72.90625 
L 55.078125 68.703125 
L 28.609375 0 
L 18.3125 0 
L 43.21875 64.59375 
L 8.203125 64.59375 
z
" id="DejaVuSans-37"/>
      </defs>
      <g transform="translate(217.854079 289.301735)rotate(-45)scale(0.1 -0.1)">
       <use xlink:href="#DejaVuSans-44"/>
       <use x="77.001953" xlink:href="#DejaVuSans-65"/>
       <use x="138.525391" xlink:href="#DejaVuSans-63"/>
       <use x="193.505859" xlink:href="#DejaVuSans-20"/>
       <use x="225.292969" xlink:href="#DejaVuSans-31"/>
       <use x="288.916016" xlink:href="#DejaVuSans-37"/>
      </g>
     </g>
    </g>
    <g id="xtick_8">
     <g id="line2d_15">
      <path clip-path="url(#p1bbbb7761f)" d="M 249.083941 252 
L 249.083941 34.56 
" style="fill:none;stroke:#b0b0b0;stroke-linecap:square;stroke-width:0.8;"/>
     </g>
     <g id="line2d_16">
      <g>
       <use style="stroke:#000000;stroke-width:0.8;" x="249.083941" xlink:href="#m4b7b64b67a" y="252"/>
      </g>
     </g>
     <g id="text_8">
      <!-- Dec 18 -->
      <defs>
       <path d="M 31.78125 34.625 
Q 24.75 34.625 20.71875 30.859375 
Q 16.703125 27.09375 16.703125 20.515625 
Q 16.703125 13.921875 20.71875 10.15625 
Q 24.75 6.390625 31.78125 6.390625 
Q 38.8125 6.390625 42.859375 10.171875 
Q 46.921875 13.96875 46.921875 20.515625 
Q 46.921875 27.09375 42.890625 30.859375 
Q 38.875 34.625 31.78125 34.625 
z
M 21.921875 38.8125 
Q 15.578125 40.375 12.03125 44.71875 
Q 8.5 49.078125 8.5 55.328125 
Q 8.5 64.0625 14.71875 69.140625 
Q 20.953125 74.21875 31.78125 74.21875 
Q 42.671875 74.21875 48.875 69.140625 
Q 55.078125 64.0625 55.078125 55.328125 
Q 55.078125 49.078125 51.53125 44.71875 
Q 48 40.375 41.703125 38.8125 
Q 48.828125 37.15625 52.796875 32.3125 
Q 56.78125 27.484375 56.78125 20.515625 
Q 56.78125 9.90625 50.3125 4.234375 
Q 43.84375 -1.421875 31.78125 -1.421875 
Q 19.734375 -1.421875 13.25 4.234375 
Q 6.78125 9.90625 6.78125 20.515625 
Q 6.78125 27.484375 10.78125 32.3125 
Q 14.796875 37.15625 21.921875 38.8125 
z
M 18.3125 54.390625 
Q 18.3125 48.734375 21.84375 45.5625 
Q 25.390625 42.390625 31.78125 42.390625 
Q 38.140625 42.390625 41.71875 45.5625 
Q 45.3125 48.734375 45.3125 54.390625 
Q 45.3125 60.0625 41.71875 63.234375 
Q 38.140625 66.40625 31.78125 66.40625 
Q 25.390625 66.40625 21.84375 63.234375 
Q 18.3125 60.0625 18.3125 54.390625 
z
" id="DejaVuSans-38"/>
      </defs>
      <g transform="translate(238.570699 289.301735)rotate(-45)scale(0.1 -0.1)">
       <use xlink:href="#DejaVuSans-44"/>
       <use x="77.001953" xlink:href="#DejaVuSans-65"/>
       <use x="138.525391" xlink:href="#DejaVuSans-63"/>
       <use x="193.505859" xlink:href="#DejaVuSans-20"/>
       <use x="225.292969" xlink:href="#DejaVuSans-31"/>
       <use x="288.916016" xlink:href="#DejaVuSans-38"/>
      </g>
     </g>
    </g>
    <g id="xtick_9">
     <g id="line2d_17">
      <path clip-path="url(#p1bbbb7761f)" d="M 269.800561 252 
L 269.800561 34.56 
" style="fill:none;stroke:#b0b0b0;stroke-linecap:square;stroke-width:0.8;"/>
     </g>
     <g id="line2d_18">
      <g>
       <use style="stroke:#000000;stroke-width:0.8;" x="269.800561" xlink:href="#m4b7b64b67a" y="252"/>
      </g>
     </g>
     <g id="text_9">
      <!-- Dec 19 -->
      <defs>
       <path d="M 10.984375 1.515625 
L 10.984375 10.5 
Q 14.703125 8.734375 18.5 7.8125 
Q 22.3125 6.890625 25.984375 6.890625 
Q 35.75 6.890625 40.890625 13.453125 
Q 46.046875 20.015625 46.78125 33.40625 
Q 43.953125 29.203125 39.59375 26.953125 
Q 35.25 24.703125 29.984375 24.703125 
Q 19.046875 24.703125 12.671875 31.3125 
Q 6.296875 37.9375 6.296875 49.421875 
Q 6.296875 60.640625 12.9375 67.421875 
Q 19.578125 74.21875 30.609375 74.21875 
Q 43.265625 74.21875 49.921875 64.515625 
Q 56.59375 54.828125 56.59375 36.375 
Q 56.59375 19.140625 48.40625 8.859375 
Q 40.234375 -1.421875 26.421875 -1.421875 
Q 22.703125 -1.421875 18.890625 -0.6875 
Q 15.09375 0.046875 10.984375 1.515625 
z
M 30.609375 32.421875 
Q 37.25 32.421875 41.125 36.953125 
Q 45.015625 41.5 45.015625 49.421875 
Q 45.015625 57.28125 41.125 61.84375 
Q 37.25 66.40625 30.609375 66.40625 
Q 23.96875 66.40625 20.09375 61.84375 
Q 16.21875 57.28125 16.21875 49.421875 
Q 16.21875 41.5 20.09375 36.953125 
Q 23.96875 32.421875 30.609375 32.421875 
z
" id="DejaVuSans-39"/>
      </defs>
      <g transform="translate(259.287319 289.301735)rotate(-45)scale(0.1 -0.1)">
       <use xlink:href="#DejaVuSans-44"/>
       <use x="77.001953" xlink:href="#DejaVuSans-65"/>
       <use x="138.525391" xlink:href="#DejaVuSans-63"/>
       <use x="193.505859" xlink:href="#DejaVuSans-20"/>
       <use x="225.292969" xlink:href="#DejaVuSans-31"/>
       <use x="288.916016" xlink:href="#DejaVuSans-39"/>
      </g>
     </g>
    </g>
    <g id="xtick_10">
     <g id="line2d_19">
      <path clip-path="url(#p1bbbb7761f)" d="M 290.517181 252 
L 290.517181 34.56 
" style="fill:none;stroke:#b0b0b0;stroke-linecap:square;stroke-width:0.8;"/>
     </g>
     <g id="line2d_20">
      <g>
       <use style="stroke:#000000;stroke-width:0.8;" x="290.517181" xlink:href="#m4b7b64b67a" y="252"/>
      </g>
     </g>
     <g id="text_10">
      <!-- Dec 20 -->
      <defs>
       <path d="M 31.78125 66.40625 
Q 24.171875 66.40625 20.328125 58.90625 
Q 16.5 51.421875 16.5 36.375 
Q 16.5 21.390625 20.328125 13.890625 
Q 24.171875 6.390625 31.78125 6.390625 
Q 39.453125 6.390625 43.28125 13.890625 
Q 47.125 21.390625 47.125 36.375 
Q 47.125 51.421875 43.28125 58.90625 
Q 39.453125 66.40625 31.78125 66.40625 
z
M 31.78125 74.21875 
Q 44.046875 74.21875 50.515625 64.515625 
Q 56.984375 54.828125 56.984375 36.375 
Q 56.984375 17.96875 50.515625 8.265625 
Q 44.046875 -1.421875 31.78125 -1.421875 
Q 19.53125 -1.421875 13.0625 8.265625 
Q 6.59375 17.96875 6.59375 36.375 
Q 6.59375 54.828125 13.0625 64.515625 
Q 19.53125 74.21875 31.78125 74.21875 
z
" id="DejaVuSans-30"/>
      </defs>
      <g transform="translate(280.003939 289.301735)rotate(-45)scale(0.1 -0.1)">
       <use xlink:href="#DejaVuSans-44"/>
       <use x="77.001953" xlink:href="#DejaVuSans-65"/>
       <use x="138.525391" xlink:href="#DejaVuSans-63"/>
       <use x="193.505859" xlink:href="#DejaVuSans-20"/>
       <use x="225.292969" xlink:href="#DejaVuSans-32"/>
       <use x="288.916016" xlink:href="#DejaVuSans-30"/>
      </g>
     </g>
    </g>
    <g id="xtick_11">
     <g id="line2d_21">
      <path clip-path="url(#p1bbbb7761f)" d="M 311.233801 252 
L 311.233801 34.56 
" style="fill:none;stroke:#b0b0b0;stroke-linecap:square;stroke-width:0.8;"/>
     </g>
     <g id="line2d_22">
      <g>
       <use style="stroke:#000000;stroke-width:0.8;" x="311.233801" xlink:href="#m4b7b64b67a" y="252"/>
      </g>
     </g>
     <g id="text_11">
      <!-- Dec 21 -->
      <g transform="translate(300.720559 289.301735)rotate(-45)scale(0.1 -0.1)">
       <use xlink:href="#DejaVuSans-44"/>
       <use x="77.001953" xlink:href="#DejaVuSans-65"/>
       <use x="138.525391" xlink:href="#DejaVuSans-63"/>
       <use x="193.505859" xlink:href="#DejaVuSans-20"/>
       <use x="225.292969" xlink:href="#DejaVuSans-32"/>
       <use x="288.916016" xlink:href="#DejaVuSans-31"/>
      </g>
     </g>
    </g>
    <g id="xtick_12">
     <g id="line2d_23">
      <path clip-path="url(#p1bbbb7761f)" d="M 331.950421 252 
L 331.950421 34.56 
" style="fill:none;stroke:#b0b0b0;stroke-linecap:square;stroke-width:0.8;"/>
     </g>
     <g id="line2d_24">
      <g>
       <use style="stroke:#000000;stroke-width:0.8;" x="331.950421" xlink:href="#m4b7b64b67a" y="252"/>
      </g>
     </g>
     <g id="text_12">
      <!-- Dec 22 -->
      <g transform="translate(321.437179 289.301735)rotate(-45)scale(0.1 -0.1)">
       <use xlink:href="#DejaVuSans-44"/>
       <use x="77.001953" xlink:href="#DejaVuSans-65"/>
       <use x="138.525391" xlink:href="#DejaVuSans-63"/>
       <use x="193.505859" xlink:href="#DejaVuSans-20"/>
       <use x="225.292969" xlink:href="#DejaVuSans-32"/>
       <use x="288.916016" xlink:href="#DejaVuSans-32"/>
      </g>
     </g>
    </g>
    <g id="xtick_13">
     <g id="line2d_25">
      <path clip-path="url(#p1bbbb7761f)" d="M 352.667041 252 
L 352.667041 34.56 
" style="fill:none;stroke:#b0b0b0;stroke-linecap:square;stroke-width:0.8;"/>
     </g>
     <g id="line2d_26">
      <g>
       <use style="stroke:#000000;stroke-width:0.8;" x="352.667041" xlink:href="#m4b7b64b67a" y="252"/>
      </g>
     </g>
     <g id="text_13">
      <!-- Dec 23 -->
      <g transform="translate(342.153799 289.301735)rotate(-45)scale(0.1 -0.1)">
       <use xlink:href="#DejaVuSans-44"/>
       <use x="77.001953" xlink:href="#DejaVuSans-65"/>
       <use x="138.525391" xlink:href="#DejaVuSans-63"/>
       <use x="193.505859" xlink:href="#DejaVuSans-20"/>
       <use x="225.292969" xlink:href="#DejaVuSans-32"/>
       <use x="288.916016" xlink:href="#DejaVuSans-33"/>
      </g>
     </g>
    </g>
    <g id="xtick_14">
     <g id="line2d_27">
      <path clip-path="url(#p1bbbb7761f)" d="M 373.38366 252 
L 373.38366 34.56 
" style="fill:none;stroke:#b0b0b0;stroke-linecap:square;stroke-width:0.8;"/>
     </g>
     <g id="line2d_28">
      <g>
       <use style="stroke:#000000;stroke-width:0.8;" x="373.38366" xlink:href="#m4b7b64b67a" y="252"/>
      </g>
     </g>
     <g id="text_14">
      <!-- Dec 24 -->
      <g transform="translate(362.870419 289.301735)rotate(-45)scale(0.1 -0.1)">
       <use xlink:href="#DejaVuSans-44"/>
       <use x="77.001953" xlink:href="#DejaVuSans-65"/>
       <use x="138.525391" xlink:href="#DejaVuSans-63"/>
       <use x="193.505859" xlink:href="#DejaVuSans-20"/>
       <use x="225.292969" xlink:href="#DejaVuSans-32"/>
       <use x="288.916016" xlink:href="#DejaVuSans-34"/>
      </g>
     </g>
    </g>
    <g id="xtick_15">
     <g id="line2d_29">
      <path clip-path="url(#p1bbbb7761f)" d="M 394.10028 252 
L 394.10028 34.56 
" style="fill:none;stroke:#b0b0b0;stroke-linecap:square;stroke-width:0.8;"/>
     </g>
     <g id="line2d_30">
      <g>
       <use style="stroke:#000000;stroke-width:0.8;" x="394.10028" xlink:href="#m4b7b64b67a" y="252"/>
      </g>
     </g>
     <g id="text_15">
      <!-- Dec 25 -->
      <g transform="translate(383.587039 289.301735)rotate(-45)scale(0.1 -0.1)">
       <use xlink:href="#DejaVuSans-44"/>
       <use x="77.001953" xlink:href="#DejaVuSans-65"/>
       <use x="138.525391" xlink:href="#DejaVuSans-63"/>
       <use x="193.505859" xlink:href="#DejaVuSans-20"/>
       <use x="225.292969" xlink:href="#DejaVuSans-32"/>
       <use x="288.916016" xlink:href="#DejaVuSans-35"/>
      </g>
     </g>
    </g>
    <g id="xtick_16">
     <g id="line2d_31">
      <path clip-path="url(#p1bbbb7761f)" d="M 414.8169 252 
L 414.8169 34.56 
" style="fill:none;stroke:#b0b0b0;stroke-linecap:square;stroke-width:0.8;"/>
     </g>
     <g id="line2d_32">
      <g>
       <use style="stroke:#000000;stroke-width:0.8;" x="414.8169" xlink:href="#m4b7b64b67a" y="252"/>
      </g>
     </g>
     <g id="text_16">
      <!-- Dec 26 -->
      <g transform="translate(404.303659 289.301735)rotate(-45)scale(0.1 -0.1)">
       <use xlink:href="#DejaVuSans-44"/>
       <use x="77.001953" xlink:href="#DejaVuSans-65"/>
       <use x="138.525391" xlink:href="#DejaVuSans-63"/>
       <use x="193.505859" xlink:href="#DejaVuSans-20"/>
       <use x="225.292969" xlink:href="#DejaVuSans-32"/>
       <use x="288.916016" xlink:href="#DejaVuSans-36"/>
      </g>
     </g>
    </g>
    <g id="xtick_17">
     <g id="line2d_33">
      <path clip-path="url(#p1bbbb7761f)" d="M 435.53352 252 
L 435.53352 34.56 
" style="fill:none;stroke:#b0b0b0;stroke-linecap:square;stroke-width:0.8;"/>
     </g>
     <g id="line2d_34">
      <g>
       <use style="stroke:#000000;stroke-width:0.8;" x="435.53352" xlink:href="#m4b7b64b67a" y="252"/>
      </g>
     </g>
     <g id="text_17">
      <!-- Dec 27 -->
      <g transform="translate(425.020279 289.301735)rotate(-45)scale(0.1 -0.1)">
       <use xlink:href="#DejaVuSans-44"/>
       <use x="77.001953" xlink:href="#DejaVuSans-65"/>
       <use x="138.525391" xlink:href="#DejaVuSans-63"/>
       <use x="193.505859" xlink:href="#DejaVuSans-20"/>
       <use x="225.292969" xlink:href="#DejaVuSans-32"/>
       <use x="288.916016" xlink:href="#DejaVuSans-37"/>
      </g>
     </g>
    </g>
    <g id="xtick_18">
     <g id="line2d_35">
      <path clip-path="url(#p1bbbb7761f)" d="M 456.25014 252 
L 456.25014 34.56 
" style="fill:none;stroke:#b0b0b0;stroke-linecap:square;stroke-width:0.8;"/>
     </g>
     <g id="line2d_36">
      <g>
       <use style="stroke:#000000;stroke-width:0.8;" x="456.25014" xlink:href="#m4b7b64b67a" y="252"/>
      </g>
     </g>
     <g id="text_18">
      <!-- Dec 28 -->
      <g transform="translate(445.736899 289.301735)rotate(-45)scale(0.1 -0.1)">
       <use xlink:href="#DejaVuSans-44"/>
       <use x="77.001953" xlink:href="#DejaVuSans-65"/>
       <use x="138.525391" xlink:href="#DejaVuSans-63"/>
       <use x="193.505859" xlink:href="#DejaVuSans-20"/>
       <use x="225.292969" xlink:href="#DejaVuSans-32"/>
       <use x="288.916016" xlink:href="#DejaVuSans-38"/>
      </g>
     </g>
    </g>
    <g id="xtick_19">
     <g id="line2d_37">
      <path clip-path="url(#p1bbbb7761f)" d="M 476.96676 252 
L 476.96676 34.56 
" style="fill:none;stroke:#b0b0b0;stroke-linecap:square;stroke-width:0.8;"/>
     </g>
     <g id="line2d_38">
      <g>
       <use style="stroke:#000000;stroke-width:0.8;" x="476.96676" xlink:href="#m4b7b64b67a" y="252"/>
      </g>
     </g>
     <g id="text_19">
      <!-- Dec 29 -->
      <g transform="translate(466.453519 289.301735)rotate(-45)scale(0.1 -0.1)">
       <use xlink:href="#DejaVuSans-44"/>
       <use x="77.001953" xlink:href="#DejaVuSans-65"/>
       <use x="138.525391" xlink:href="#DejaVuSans-63"/>
       <use x="193.505859" xlink:href="#DejaVuSans-20"/>
       <use x="225.292969" xlink:href="#DejaVuSans-32"/>
       <use x="288.916016" xlink:href="#DejaVuSans-39"/>
      </g>
     </g>
    </g>
    <g id="xtick_20">
     <g id="line2d_39">
      <path clip-path="url(#p1bbbb7761f)" d="M 497.68338 252 
L 497.68338 34.56 
" style="fill:none;stroke:#b0b0b0;stroke-linecap:square;stroke-width:0.8;"/>
     </g>
     <g id="line2d_40">
      <g>
       <use style="stroke:#000000;stroke-width:0.8;" x="497.68338" xlink:href="#m4b7b64b67a" y="252"/>
      </g>
     </g>
     <g id="text_20">
      <!-- Dec 30 -->
      <g transform="translate(487.170139 289.301735)rotate(-45)scale(0.1 -0.1)">
       <use xlink:href="#DejaVuSans-44"/>
       <use x="77.001953" xlink:href="#DejaVuSans-65"/>
       <use x="138.525391" xlink:href="#DejaVuSans-63"/>
       <use x="193.505859" xlink:href="#DejaVuSans-20"/>
       <use x="225.292969" xlink:href="#DejaVuSans-33"/>
       <use x="288.916016" xlink:href="#DejaVuSans-30"/>
      </g>
     </g>
    </g>
    <g id="xtick_21">
     <g id="line2d_41">
      <path clip-path="url(#p1bbbb7761f)" d="M 518.4 252 
L 518.4 34.56 
" style="fill:none;stroke:#b0b0b0;stroke-linecap:square;stroke-width:0.8;"/>
     </g>
     <g id="line2d_42">
      <g>
       <use style="stroke:#000000;stroke-width:0.8;" x="518.4" xlink:href="#m4b7b64b67a" y="252"/>
      </g>
     </g>
     <g id="text_21">
      <!-- Dec 31 -->
      <g transform="translate(507.886758 289.301735)rotate(-45)scale(0.1 -0.1)">
       <use xlink:href="#DejaVuSans-44"/>
       <use x="77.001953" xlink:href="#DejaVuSans-65"/>
       <use x="138.525391" xlink:href="#DejaVuSans-63"/>
       <use x="193.505859" xlink:href="#DejaVuSans-20"/>
       <use x="225.292969" xlink:href="#DejaVuSans-33"/>
       <use x="288.916016" xlink:href="#DejaVuSans-31"/>
      </g>
     </g>
    </g>
   </g>
   <g id="matplotlib.axis_2">
    <g id="ytick_1">
     <g id="line2d_43">
      <path clip-path="url(#p1bbbb7761f)" d="M 72 229.151779 
L 518.4 229.151779 
" style="fill:none;stroke:#b0b0b0;stroke-linecap:square;stroke-width:0.8;"/>
     </g>
     <g id="line2d_44">
      <defs>
       <path d="M 0 0 
L -3.5 0 
" id="md53545ce1e" style="stroke:#000000;stroke-width:0.8;"/>
      </defs>
      <g>
       <use style="stroke:#000000;stroke-width:0.8;" x="72" xlink:href="#md53545ce1e" y="229.151779"/>
      </g>
     </g>
     <g id="text_22">
      <!-- 0 -->
      <g transform="translate(58.6375 232.950998)scale(0.1 -0.1)">
       <use xlink:href="#DejaVuSans-30"/>
      </g>
     </g>
    </g>
    <g id="ytick_2">
     <g id="line2d_45">
      <path clip-path="url(#p1bbbb7761f)" d="M 72 203.639605 
L 518.4 203.639605 
" style="fill:none;stroke:#b0b0b0;stroke-linecap:square;stroke-width:0.8;"/>
     </g>
     <g id="line2d_46">
      <g>
       <use style="stroke:#000000;stroke-width:0.8;" x="72" xlink:href="#md53545ce1e" y="203.639605"/>
      </g>
     </g>
     <g id="text_23">
      <!-- 100 -->
      <g transform="translate(45.9125 207.438824)scale(0.1 -0.1)">
       <use xlink:href="#DejaVuSans-31"/>
       <use x="63.623047" xlink:href="#DejaVuSans-30"/>
       <use x="127.246094" xlink:href="#DejaVuSans-30"/>
      </g>
     </g>
    </g>
    <g id="ytick_3">
     <g id="line2d_47">
      <path clip-path="url(#p1bbbb7761f)" d="M 72 178.12743 
L 518.4 178.12743 
" style="fill:none;stroke:#b0b0b0;stroke-linecap:square;stroke-width:0.8;"/>
     </g>
     <g id="line2d_48">
      <g>
       <use style="stroke:#000000;stroke-width:0.8;" x="72" xlink:href="#md53545ce1e" y="178.12743"/>
      </g>
     </g>
     <g id="text_24">
      <!-- 200 -->
      <g transform="translate(45.9125 181.926649)scale(0.1 -0.1)">
       <use xlink:href="#DejaVuSans-32"/>
       <use x="63.623047" xlink:href="#DejaVuSans-30"/>
       <use x="127.246094" xlink:href="#DejaVuSans-30"/>
      </g>
     </g>
    </g>
    <g id="ytick_4">
     <g id="line2d_49">
      <path clip-path="url(#p1bbbb7761f)" d="M 72 152.615256 
L 518.4 152.615256 
" style="fill:none;stroke:#b0b0b0;stroke-linecap:square;stroke-width:0.8;"/>
     </g>
     <g id="line2d_50">
      <g>
       <use style="stroke:#000000;stroke-width:0.8;" x="72" xlink:href="#md53545ce1e" y="152.615256"/>
      </g>
     </g>
     <g id="text_25">
      <!-- 300 -->
      <g transform="translate(45.9125 156.414475)scale(0.1 -0.1)">
       <use xlink:href="#DejaVuSans-33"/>
       <use x="63.623047" xlink:href="#DejaVuSans-30"/>
       <use x="127.246094" xlink:href="#DejaVuSans-30"/>
      </g>
     </g>
    </g>
    <g id="ytick_5">
     <g id="line2d_51">
      <path clip-path="url(#p1bbbb7761f)" d="M 72 127.103082 
L 518.4 127.103082 
" style="fill:none;stroke:#b0b0b0;stroke-linecap:square;stroke-width:0.8;"/>
     </g>
     <g id="line2d_52">
      <g>
       <use style="stroke:#000000;stroke-width:0.8;" x="72" xlink:href="#md53545ce1e" y="127.103082"/>
      </g>
     </g>
     <g id="text_26">
      <!-- 400 -->
      <g transform="translate(45.9125 130.9023)scale(0.1 -0.1)">
       <use xlink:href="#DejaVuSans-34"/>
       <use x="63.623047" xlink:href="#DejaVuSans-30"/>
       <use x="127.246094" xlink:href="#DejaVuSans-30"/>
      </g>
     </g>
    </g>
    <g id="ytick_6">
     <g id="line2d_53">
      <path clip-path="url(#p1bbbb7761f)" d="M 72 101.590907 
L 518.4 101.590907 
" style="fill:none;stroke:#b0b0b0;stroke-linecap:square;stroke-width:0.8;"/>
     </g>
     <g id="line2d_54">
      <g>
       <use style="stroke:#000000;stroke-width:0.8;" x="72" xlink:href="#md53545ce1e" y="101.590907"/>
      </g>
     </g>
     <g id="text_27">
      <!-- 500 -->
      <g transform="translate(45.9125 105.390126)scale(0.1 -0.1)">
       <use xlink:href="#DejaVuSans-35"/>
       <use x="63.623047" xlink:href="#DejaVuSans-30"/>
       <use x="127.246094" xlink:href="#DejaVuSans-30"/>
      </g>
     </g>
    </g>
    <g id="ytick_7">
     <g id="line2d_55">
      <path clip-path="url(#p1bbbb7761f)" d="M 72 76.078733 
L 518.4 76.078733 
" style="fill:none;stroke:#b0b0b0;stroke-linecap:square;stroke-width:0.8;"/>
     </g>
     <g id="line2d_56">
      <g>
       <use style="stroke:#000000;stroke-width:0.8;" x="72" xlink:href="#md53545ce1e" y="76.078733"/>
      </g>
     </g>
     <g id="text_28">
      <!-- 600 -->
      <g transform="translate(45.9125 79.877951)scale(0.1 -0.1)">
       <use xlink:href="#DejaVuSans-36"/>
       <use x="63.623047" xlink:href="#DejaVuSans-30"/>
       <use x="127.246094" xlink:href="#DejaVuSans-30"/>
      </g>
     </g>
    </g>
    <g id="ytick_8">
     <g id="line2d_57">
      <path clip-path="url(#p1bbbb7761f)" d="M 72 50.566558 
L 518.4 50.566558 
" style="fill:none;stroke:#b0b0b0;stroke-linecap:square;stroke-width:0.8;"/>
     </g>
     <g id="line2d_58">
      <g>
       <use style="stroke:#000000;stroke-width:0.8;" x="72" xlink:href="#md53545ce1e" y="50.566558"/>
      </g>
     </g>
     <g id="text_29">
      <!-- 700 -->
      <g transform="translate(45.9125 54.365777)scale(0.1 -0.1)">
       <use xlink:href="#DejaVuSans-37"/>
       <use x="63.623047" xlink:href="#DejaVuSans-30"/>
       <use x="127.246094" xlink:href="#DejaVuSans-30"/>
      </g>
     </g>
    </g>
   </g>
   <g id="line2d_59">
    <path clip-path="url(#p1bbbb7761f)" d="M 93.709291 195.854382 
L 94.572484 210.777673 
L 95.435676 222.045438 
L 96.298869 227.986303 
L 97.162061 229.257715 
L 98.025254 225.298536 
L 98.888446 230.191069 
L 99.751639 221.251511 
L 100.614831 198.625294 
L 102.341216 63.916974 
L 103.204409 152.481334 
L 104.067601 189.076722 
L 104.930794 188.240877 
L 105.793986 180.794503 
L 106.657179 178.650863 
L 107.520371 185.411282 
L 108.383564 178.639301 
L 109.246756 150.492766 
L 110.109949 83.579863 
L 110.973141 92.42384 
L 111.836334 139.731258 
L 112.699526 167.250978 
L 113.562719 187.557129 
L 114.425911 203.022127 
L 115.289104 214.905416 
L 117.015489 226.400065 
L 117.878681 230.178386 
L 118.741874 232.82534 
L 119.605066 234.180176 
L 120.468259 226.818589 
L 121.331451 200.19382 
L 123.057836 70.047838 
L 123.921029 155.741214 
L 124.784221 192.957931 
L 125.647414 185.694708 
L 126.510606 169.79724 
L 127.373799 173.218462 
L 128.236991 181.681072 
L 129.100184 175.632177 
L 129.963376 147.772474 
L 130.826569 87.833517 
L 131.689761 98.165325 
L 132.552954 147.369689 
L 134.279339 190.667612 
L 136.005724 211.200062 
L 136.868916 216.554154 
L 137.732109 224.317589 
L 139.458494 230.10353 
L 140.321686 231.99222 
L 141.184879 224.620748 
L 142.048071 197.729737 
L 143.774456 65.471405 
L 144.637649 150.339411 
L 145.500841 189.19997 
L 146.364034 180.938172 
L 147.227226 166.502278 
L 148.090419 169.593262 
L 148.953611 177.70427 
L 149.816804 167.177026 
L 150.679996 138.428142 
L 151.543189 69.751 
L 152.406381 84.289125 
L 153.269574 132.638121 
L 154.132766 159.643063 
L 154.995959 181.404236 
L 155.859151 192.564792 
L 156.722344 200.652604 
L 157.585536 219.437833 
L 158.448729 227.094366 
L 159.311921 232.481022 
L 160.175114 235.605632 
L 161.038306 234.237257 
L 161.901499 228.058418 
L 162.764691 206.411389 
L 163.627884 151.238379 
L 164.491076 85.72856 
L 165.354269 150.62443 
L 166.217461 187.998068 
L 167.080654 172.41585 
L 167.943846 154.493929 
L 168.807039 155.889064 
L 169.670231 158.07064 
L 170.533424 147.381679 
L 171.396616 126.132937 
L 172.259809 84.781274 
L 173.123001 95.965554 
L 173.986194 140.844807 
L 174.849386 175.438507 
L 175.712579 189.037093 
L 176.575771 191.93753 
L 177.438964 196.395099 
L 178.302156 203.715586 
L 179.165349 216.802946 
L 180.028541 220.49188 
L 180.891734 228.303637 
L 181.754926 233.302642 
L 182.618119 229.906758 
L 183.481311 231.1335 
L 184.344504 226.260958 
L 185.207696 196.906728 
L 186.070889 178.923066 
L 188.660466 93.639358 
L 189.523659 101.653286 
L 190.386851 99.052863 
L 191.250044 88.051003 
L 192.976429 113.771351 
L 194.702813 164.882841 
L 195.566006 185.159846 
L 197.292391 190.921212 
L 198.155583 195.721971 
L 199.018776 199.232057 
L 199.881968 209.559528 
L 200.745161 215.147466 
L 201.608353 225.610879 
L 202.471546 230.568325 
L 203.334738 230.253055 
L 204.197931 229.540944 
L 205.061123 220.032687 
L 205.924316 204.755155 
L 206.787508 186.186461 
L 207.650701 159.349137 
L 209.377086 132.346313 
L 210.240278 130.742584 
L 211.103471 133.544968 
L 211.966663 137.613229 
L 212.829856 140.001203 
L 213.693048 151.364094 
L 214.556241 184.239468 
L 215.419433 181.316736 
L 216.282626 188.944104 
L 217.145818 200.031753 
L 218.009011 206.414953 
L 218.872203 217.437002 
L 219.735396 222.20909 
L 221.461781 229.152243 
L 223.188166 230.840365 
L 224.051358 222.937442 
L 224.914551 198.00244 
L 226.640936 70.505465 
L 227.504128 154.209136 
L 228.367321 191.897554 
L 229.230513 189.88863 
L 230.093706 177.499892 
L 230.956898 181.690251 
L 231.820091 187.945954 
L 232.683283 180.337342 
L 233.546476 183.648985 
L 234.409668 93.99571 
L 235.272861 99.38606 
L 236.136053 140.10058 
L 236.999246 169.930188 
L 237.862438 185.600276 
L 238.725631 197.320503 
L 239.588823 220.675257 
L 240.452016 224.271552 
L 241.315208 228.700302 
L 242.178401 230.607888 
L 243.041593 231.513158 
L 243.904786 230.513774 
L 244.767978 224.302967 
L 245.631171 196.14619 
L 247.357556 63.742964 
L 248.220748 152.39306 
L 249.083941 187.02999 
L 249.947133 179.453716 
L 250.810326 177.868646 
L 251.673518 166.629201 
L 252.536711 177.251236 
L 253.399903 170.935462 
L 254.263096 141.829402 
L 255.126288 66.715684 
L 255.989481 77.799356 
L 256.852673 130.327194 
L 257.715866 162.84648 
L 258.579058 184.844821 
L 260.305443 212.655042 
L 261.168636 220.806076 
L 262.031828 226.770563 
L 262.895021 230.477528 
L 263.758213 232.44847 
L 264.621406 232.163953 
L 265.484598 227.064769 
L 266.347791 202.326068 
L 267.210983 135.049056 
L 268.074176 77.479738 
L 268.937368 157.583201 
L 269.800561 191.435835 
L 270.663753 179.787096 
L 271.526946 166.486208 
L 272.390138 167.622461 
L 273.253331 175.904855 
L 274.116523 169.160035 
L 274.979716 138.100691 
L 275.842908 64.160231 
L 276.706101 82.514063 
L 277.569293 130.446681 
L 278.432486 162.490908 
L 279.295678 184.124138 
L 280.158871 193.89944 
L 281.885256 215.442127 
L 282.748448 224.862008 
L 283.611641 228.210843 
L 284.474833 230.24168 
L 285.338026 230.977981 
L 286.201218 222.92405 
L 287.064411 197.222074 
L 288.790796 59.418367 
L 289.653988 149.38592 
L 290.517181 189.212637 
L 291.380373 183.380885 
L 292.243566 169.52441 
L 293.106758 173.899018 
L 293.969951 181.136786 
L 294.833143 174.02515 
L 295.696336 146.307922 
L 296.559528 82.264329 
L 297.422721 99.397847 
L 298.285913 170.63604 
L 299.149106 186.345441 
L 301.738683 212.984268 
L 302.601876 236.921096 
L 303.465068 236.694594 
L 304.328261 239.730094 
L 305.191453 237.826623 
L 306.054646 225.233074 
L 306.917838 220.626596 
L 307.781031 202.754934 
L 308.644223 165.554759 
L 309.507416 106.301005 
L 310.370608 161.202678 
L 311.233801 192.932231 
L 312.096993 184.414884 
L 312.960186 171.513021 
L 313.823378 173.096429 
L 314.686571 180.853048 
L 315.549763 175.839214 
L 316.412956 154.851059 
L 317.276148 141.617896 
L 318.139341 161.500847 
L 319.002533 175.434373 
L 319.865726 195.461679 
L 320.728918 202.59217 
L 321.592111 203.898345 
L 322.455303 209.030109 
L 323.318496 212.37217 
L 325.044881 220.253155 
L 326.771266 232.858826 
L 327.634458 230.005804 
L 328.497651 233.75867 
L 329.360843 241.513899 
L 330.224036 214.924557 
L 331.087228 197.629387 
L 331.950421 186.93302 
L 332.813613 170.220326 
L 333.676806 157.056716 
L 334.539998 151.096749 
L 335.403191 155.333967 
L 336.266383 152.391332 
L 337.129576 160.308833 
L 337.992768 172.747568 
L 338.855961 190.585614 
L 339.719153 200.544994 
L 340.582346 206.707754 
L 341.445538 208.841549 
L 342.308731 208.029812 
L 343.171923 212.122664 
L 344.035116 219.839295 
L 344.898308 219.500352 
L 346.624693 232.219364 
L 347.487886 238.080709 
L 348.351078 237.741576 
L 349.214271 237.986884 
L 350.077463 239.727875 
L 350.940656 230.060117 
L 351.803848 217.797663 
L 352.667041 196.818847 
L 353.530233 181.356852 
L 354.393426 159.859809 
L 355.256618 157.676699 
L 356.11981 159.008894 
L 356.983003 158.519587 
L 357.846195 164.479655 
L 358.709388 185.788436 
L 359.57258 198.827826 
L 360.435773 208.207921 
L 361.298965 213.664524 
L 362.162158 218.116861 
L 363.888543 232.947533 
L 364.751735 229.45852 
L 365.614928 230.474869 
L 366.47812 233.996574 
L 367.341313 236.354282 
L 368.204505 229.035601 
L 369.067698 212.155658 
L 370.794083 111.693582 
L 371.657275 181.363567 
L 372.520468 203.890318 
L 373.38366 202.433774 
L 374.246853 190.022205 
L 375.110045 213.327107 
L 376.83643 222.404518 
L 377.699623 207.52829 
L 378.562815 180.235875 
L 379.426008 180.01204 
L 380.2892 181.930113 
L 381.152393 207.940489 
L 382.015585 212.900622 
L 382.878778 211.231976 
L 383.74197 226.635971 
L 384.605163 225.329161 
L 385.468355 223.793693 
L 386.331548 225.498243 
L 387.19474 234.875225 
L 388.057933 231.904798 
L 388.921125 232.818076 
L 389.784318 221.088218 
L 390.64751 202.779486 
L 391.510703 209.889301 
L 392.373895 200.691344 
L 393.237088 193.093636 
L 394.10028 182.424143 
L 394.963473 170.305989 
L 395.826665 174.822581 
L 396.689858 178.240195 
L 397.55305 176.822446 
L 398.416243 181.427469 
L 400.142628 202.149 
L 401.00582 207.171014 
L 401.869013 210.468633 
L 402.732205 214.572764 
L 403.595398 227.281966 
L 404.45859 220.517269 
L 405.321783 224.115682 
L 406.184975 225.809006 
L 407.048168 227.907987 
L 407.91136 228.541455 
L 408.774553 222.623079 
L 409.637745 208.907239 
L 410.500938 197.402829 
L 411.36413 164.159141 
L 412.227323 203.597105 
L 413.090515 223.987226 
L 413.953708 228.659276 
L 414.8169 223.701514 
L 415.680093 223.953331 
L 416.543285 226.034561 
L 417.406478 225.820575 
L 418.26967 213.764204 
L 419.132863 186.440586 
L 419.996055 183.100296 
L 420.859248 197.241089 
L 421.72244 207.265852 
L 422.585633 202.875324 
L 423.448825 222.733044 
L 424.312018 228.866157 
L 425.17521 236.962858 
L 426.038403 237.846924 
L 426.901595 228.833488 
L 427.764788 229.663502 
L 428.62798 229.23247 
L 429.491173 222.68754 
L 430.354365 202.633893 
L 431.217558 158.83708 
L 432.08075 102.027015 
L 432.943943 175.774445 
L 433.807135 205.193566 
L 434.670328 203.978413 
L 435.53352 190.562062 
L 436.396713 193.488172 
L 437.259905 206.298477 
L 438.123098 200.525456 
L 438.98629 176.361599 
L 439.849483 129.443914 
L 440.712675 141.842497 
L 441.575868 167.584093 
L 442.43906 183.836433 
L 443.302253 197.980378 
L 444.165445 204.642239 
L 445.028638 213.186112 
L 445.89183 214.612833 
L 446.755023 222.415535 
L 447.618215 226.186733 
L 448.481408 227.830889 
L 449.3446 227.464151 
L 450.207793 222.234876 
L 451.070985 210.216577 
L 451.934178 173.296923 
L 452.79737 114.460806 
L 453.660563 168.10278 
L 454.523755 198.060185 
L 455.386948 188.001116 
L 456.25014 173.26209 
L 457.113333 173.757131 
L 457.976525 180.642117 
L 458.839718 172.265789 
L 459.70291 154.765837 
L 460.566103 142.88371 
L 461.429295 160.817683 
L 462.292488 185.149219 
L 463.15568 201.824299 
L 464.018873 206.740489 
L 464.882065 208.228172 
L 465.745258 211.61475 
L 466.60845 223.447584 
L 467.471643 225.213548 
L 468.334835 228.285426 
L 469.198028 232.881335 
L 470.06122 236.325478 
L 470.924413 234.601523 
L 472.650798 238.763939 
L 473.51399 213.227534 
L 474.377183 200.983384 
L 475.240375 204.246111 
L 476.103568 206.24367 
L 476.96676 202.894957 
L 477.829953 202.295747 
L 478.693145 176.146173 
L 479.556338 173.572447 
L 480.41953 168.067005 
L 481.282723 181.55879 
L 482.145915 187.939045 
L 483.8723 209.977832 
L 484.735493 210.524346 
L 485.598685 209.172509 
L 486.461878 209.082886 
L 487.32507 219.546801 
L 488.188263 219.583842 
L 490.77784 235.357607 
L 491.641033 233.972146 
L 492.504225 236.494054 
L 493.367418 242.116364 
L 494.23061 232.568393 
L 495.093803 217.890005 
L 495.956995 194.814516 
L 496.820188 180.953884 
L 497.68338 169.055613 
L 498.546573 169.508001 
L 499.409765 169.736982 
L 501.13615 176.51161 
L 502.862535 206.593236 
L 503.725728 199.805176 
L 504.58892 222.029287 
L 506.315305 227.556139 
L 507.178498 236.714845 
L 508.04169 227.774217 
L 508.904883 229.696778 
L 510.631268 235.582988 
L 511.49446 234.554349 
L 512.357653 227.878966 
L 513.220845 211.738305 
L 514.94723 121.834064 
L 515.810423 184.607973 
L 516.673615 209.965056 
L 517.536808 205.216489 
L 518.4 195.65077 
L 519.263192 193.428767 
L 520.126385 200.102095 
L 520.989577 196.751493 
L 521.85277 177.810568 
L 522.715962 130.889843 
L 523.579155 139.825963 
L 524.442347 176.610586 
L 525.30554 193.669279 
L 527.895117 221.210543 
L 527.895117 221.210543 
" style="fill:none;stroke:#1f77b4;stroke-linecap:square;stroke-width:1.5;"/>
   </g>
   <g id="line2d_60">
    <path clip-path="url(#p1bbbb7761f)" d="M 93.709291 197.00644 
L 94.572484 207.721553 
L 95.435676 221.243005 
L 96.298869 227.110805 
L 97.162061 228.896658 
L 98.025254 228.386414 
L 98.888446 227.110805 
L 99.751639 218.691788 
L 100.614831 199.047413 
L 101.478024 132.205516 
L 102.341216 44.443636 
L 103.204409 143.941117 
L 104.067601 189.863031 
L 104.930794 185.015718 
L 105.793986 171.494265 
L 106.657179 164.350856 
L 107.520371 177.106943 
L 108.383564 160.268908 
L 109.246756 137.818195 
L 110.109949 75.823611 
L 110.973141 89.855307 
L 111.836334 118.684064 
L 112.699526 163.585491 
L 113.562719 176.341578 
L 114.425911 202.108874 
L 115.289104 212.823988 
L 116.152296 220.47764 
L 117.878681 226.855684 
L 118.741874 226.600562 
L 119.605066 228.131292 
L 120.468259 219.712275 
L 121.331451 196.496196 
L 122.194644 135.011856 
L 123.057836 53.628019 
L 123.921029 156.442082 
L 124.784221 194.455222 
L 125.647414 185.270839 
L 126.510606 169.963535 
L 127.373799 168.432804 
L 128.236991 171.749387 
L 129.100184 170.984022 
L 129.963376 145.216725 
L 130.826569 86.028481 
L 131.689761 91.386037 
L 133.416146 160.779152 
L 134.279339 177.617187 
L 135.142531 198.026927 
L 136.868916 220.987884 
L 137.732109 223.283979 
L 138.595301 227.110805 
L 139.458494 228.641536 
L 140.321686 227.110805 
L 141.184879 220.732762 
L 142.048071 200.0679 
L 143.774456 55.924115 
L 144.637649 146.237212 
L 145.500841 186.546448 
L 146.364034 180.93377 
L 147.227226 157.207447 
L 148.090419 160.013787 
L 148.953611 167.412317 
L 149.816804 157.717691 
L 150.679996 125.572351 
L 151.543189 88.83482 
L 152.406381 110.265046 
L 154.132766 167.667439 
L 154.995959 174.810848 
L 155.859151 191.393761 
L 156.722344 198.53717 
L 157.585536 217.161057 
L 158.448729 222.518614 
L 159.311921 226.855684 
L 160.175114 226.090318 
L 161.038306 226.600562 
L 161.901499 220.47764 
L 162.764691 200.323022 
L 163.627884 150.574282 
L 164.491076 66.89435 
L 165.354269 141.645021 
L 166.217461 180.678648 
L 167.080654 175.321091 
L 167.943846 159.503543 
L 168.807039 149.298673 
L 169.670231 152.870378 
L 170.533424 150.31916 
L 171.396616 122.766012 
L 172.259809 70.466054 
L 173.123001 113.071386 
L 173.986194 147.767943 
L 174.849386 172.769874 
L 175.712579 185.270839 
L 176.575771 193.944979 
L 177.438964 194.965466 
L 178.302156 205.170335 
L 179.165349 204.915214 
L 180.028541 211.548379 
L 180.891734 223.283979 
L 181.754926 227.621049 
L 182.618119 228.386414 
L 183.481311 226.34544 
L 184.344504 216.905936 
L 185.207696 198.792292 
L 186.070889 173.024996 
L 186.934081 159.503543 
L 187.797274 128.888934 
L 188.660466 113.581629 
L 189.523659 112.816264 
L 190.386851 120.469916 
L 191.250044 115.11236 
L 192.113236 123.786499 
L 192.976429 150.31916 
L 193.839621 159.758665 
L 194.702813 163.585491 
L 195.566006 177.872309 
L 196.429198 182.209378 
L 197.292391 189.352787 
L 198.155583 198.792292 
L 199.018776 201.088387 
L 199.881968 204.660092 
L 200.745161 206.956188 
L 201.608353 219.457153 
L 202.471546 226.34544 
L 203.334738 226.855684 
L 204.197931 227.621049 
L 205.061123 222.263492 
L 205.924316 206.701066 
L 206.787508 195.475709 
L 207.650701 163.585491 
L 208.513893 153.890865 
L 209.377086 122.766012 
L 210.240278 138.328438 
L 211.103471 150.064039 
L 211.966663 142.92063 
L 212.829856 127.103082 
L 213.693048 167.157195 
L 214.556241 201.853753 
L 215.419433 201.343509 
L 216.282626 198.026927 
L 218.009011 206.445944 
L 218.872203 220.732762 
L 219.735396 222.00837 
L 220.598588 225.324953 
L 221.461781 227.876171 
L 222.324973 228.386414 
L 223.188166 227.876171 
L 224.051358 223.028857 
L 224.914551 201.598631 
L 225.777743 147.767943 
L 226.640936 78.119707 
L 227.504128 157.207447 
L 228.367321 194.710344 
L 229.230513 185.781083 
L 230.093706 169.963535 
L 230.956898 175.576213 
L 231.820091 182.974744 
L 232.683283 175.321091 
L 233.546476 152.105013 
L 234.409668 102.866516 
L 235.272861 99.805055 
L 236.136053 142.410386 
L 236.999246 178.12743 
L 237.862438 198.53717 
L 238.725631 215.375205 
L 239.588823 217.161057 
L 240.452016 224.559588 
L 241.315208 225.324953 
L 242.178401 227.365927 
L 243.041593 227.876171 
L 243.904786 227.110805 
L 244.767978 219.967397 
L 245.631171 199.047413 
L 246.494363 138.58356 
L 247.357556 60.261185 
L 248.220748 145.982091 
L 249.083941 182.209378 
L 249.947133 160.52403 
L 250.810326 149.298673 
L 251.673518 156.18696 
L 252.536711 166.136708 
L 253.399903 166.39183 
L 254.263096 136.542586 
L 255.126288 83.222142 
L 255.989481 95.212864 
L 256.852673 139.093804 
L 257.715866 160.779152 
L 258.579058 186.291326 
L 259.442251 195.475709 
L 260.305443 208.486918 
L 261.168636 218.691788 
L 262.031828 225.324953 
L 262.895021 228.386414 
L 264.621406 227.365927 
L 265.484598 221.243005 
L 266.347791 200.578144 
L 267.210983 136.542586 
L 268.074176 56.179237 
L 268.937368 148.278186 
L 269.800561 187.311813 
L 271.526946 168.943048 
L 272.390138 174.810848 
L 273.253331 173.535239 
L 274.116523 168.687926 
L 274.979716 143.941117 
L 275.842908 85.773359 
L 276.706101 83.987507 
L 277.569293 143.430873 
L 278.432486 167.667439 
L 279.295678 186.291326 
L 281.022063 206.701066 
L 281.885256 218.436666 
L 282.748448 224.049344 
L 283.611641 227.110805 
L 284.474833 228.131292 
L 285.338026 227.621049 
L 286.201218 220.222518 
L 287.064411 199.047413 
L 288.790796 76.333854 
L 289.653988 148.278186 
L 290.517181 188.077178 
L 291.380373 180.678648 
L 292.243566 175.06597 
L 293.106758 173.790361 
L 293.969951 174.555726 
L 294.833143 165.626465 
L 295.696336 152.105013 
L 296.559528 107.968951 
L 297.422721 131.950395 
L 298.285913 199.047413 
L 299.149106 216.395692 
L 300.012298 222.518614 
L 300.875491 223.794223 
L 301.738683 225.835197 
L 302.601876 224.81471 
L 303.465068 226.855684 
L 304.328261 228.386414 
L 305.191453 228.386414 
L 306.054646 227.621049 
L 306.917838 225.835197 
L 307.781031 208.74204 
L 308.644223 176.086456 
L 309.507416 108.734316 
L 310.370608 161.034274 
L 311.233801 189.863031 
L 312.096993 187.822057 
L 312.960186 172.004509 
L 313.823378 167.922561 
L 314.686571 173.280117 
L 315.549763 162.054761 
L 316.412956 157.462569 
L 317.276148 147.257699 
L 318.139341 167.157195 
L 319.002533 190.118152 
L 320.728918 211.293257 
L 321.592111 213.079109 
L 322.455303 218.94691 
L 323.318496 221.243005 
L 324.181688 220.222518 
L 325.044881 223.283979 
L 325.908073 227.365927 
L 326.771266 227.876171 
L 327.634458 227.876171 
L 330.224036 221.753249 
L 331.087228 206.190822 
L 331.950421 199.047413 
L 332.813613 188.587422 
L 333.676806 191.904005 
L 334.539998 188.842544 
L 335.403191 188.077178 
L 336.266383 190.118152 
L 337.129576 191.648883 
L 338.855961 208.231796 
L 339.719153 213.844475 
L 340.582346 213.589353 
L 341.445538 215.630327 
L 342.308731 219.202031 
L 343.171923 218.94691 
L 344.035116 222.263492 
L 344.898308 224.049344 
L 345.761501 224.559588 
L 346.624693 226.855684 
L 347.487886 228.131292 
L 348.351078 227.621049 
L 349.214271 226.855684 
L 350.077463 224.304466 
L 350.940656 216.905936 
L 351.803848 214.864962 
L 352.667041 205.425457 
L 353.530233 190.373274 
L 354.393426 179.147917 
L 356.11981 184.505474 
L 356.983003 194.2001 
L 357.846195 180.678648 
L 358.709388 200.0679 
L 359.57258 205.425457 
L 360.435773 214.354718 
L 361.298965 215.885449 
L 362.162158 218.436666 
L 363.02535 214.354718 
L 363.888543 222.773736 
L 364.751735 226.090318 
L 365.614928 226.34544 
L 366.47812 227.876171 
L 367.341313 228.386414 
L 368.204505 226.855684 
L 369.067698 224.81471 
L 369.93089 221.498127 
L 370.794083 212.313744 
L 373.38366 197.516683 
L 374.246853 194.710344 
L 375.110045 211.293257 
L 375.973238 217.416179 
L 376.83643 220.732762 
L 377.699623 220.732762 
L 378.562815 222.518614 
L 379.426008 222.518614 
L 380.2892 224.559588 
L 381.152393 223.283979 
L 382.015585 223.539101 
L 382.878778 226.090318 
L 383.74197 226.34544 
L 384.605163 225.835197 
L 385.468355 225.835197 
L 387.19474 228.896658 
L 388.057933 228.386414 
L 388.921125 227.365927 
L 389.784318 227.621049 
L 390.64751 226.34544 
L 391.510703 222.00837 
L 392.373895 220.987884 
L 393.237088 207.211309 
L 394.10028 200.0679 
L 394.963473 198.282048 
L 395.826665 197.00644 
L 397.55305 207.211309 
L 398.416243 216.395692 
L 400.142628 219.967397 
L 401.00582 218.94691 
L 401.869013 220.47764 
L 402.732205 224.304466 
L 403.595398 221.498127 
L 404.45859 226.855684 
L 405.321783 227.365927 
L 406.184975 228.896658 
L 407.048168 228.641536 
L 407.91136 228.641536 
L 408.774553 226.34544 
L 409.637745 219.967397 
L 410.500938 222.518614 
L 411.36413 221.243005 
L 412.227323 223.283979 
L 413.090515 227.110805 
L 413.953708 226.600562 
L 414.8169 226.600562 
L 416.543285 224.049344 
L 417.406478 225.835197 
L 418.26967 225.835197 
L 419.132863 215.630327 
L 419.996055 218.181544 
L 420.859248 220.222518 
L 421.72244 220.987884 
L 422.585633 224.049344 
L 423.448825 226.34544 
L 424.312018 226.600562 
L 425.17521 228.386414 
L 426.038403 227.876171 
L 426.901595 228.641536 
L 427.764788 228.896658 
L 428.62798 228.386414 
L 429.491173 226.34544 
L 430.354365 217.671301 
L 431.217558 206.190822 
L 432.08075 176.086456 
L 432.943943 195.220587 
L 433.807135 210.017648 
L 434.670328 202.87424 
L 435.53352 201.343509 
L 436.396713 199.047413 
L 438.123098 198.53717 
L 438.98629 184.760596 
L 439.849483 163.585491 
L 440.712675 178.892796 
L 441.575868 199.302535 
L 443.302253 213.079109 
L 445.028638 222.518614 
L 445.89183 222.773736 
L 446.755023 226.855684 
L 447.618215 227.876171 
L 448.481408 228.641536 
L 449.3446 228.131292 
L 450.207793 225.324953 
L 451.070985 216.14057 
L 451.934178 200.578144 
L 452.79737 168.177682 
L 453.660563 180.423526 
L 454.523755 187.822057 
L 455.386948 183.740109 
L 456.25014 172.514752 
L 457.113333 172.514752 
L 457.976525 162.565004 
L 458.839718 171.749387 
L 459.70291 165.371343 
L 460.566103 160.013787 
L 461.429295 174.810848 
L 462.292488 196.496196 
L 463.15568 204.40497 
L 464.018873 205.680579 
L 464.882065 213.334231 
L 465.745258 214.099596 
L 466.60845 222.518614 
L 467.471643 219.712275 
L 468.334835 224.304466 
L 469.198028 227.621049 
L 470.06122 228.386414 
L 470.924413 228.386414 
L 471.787605 227.365927 
L 472.650798 224.559588 
L 473.51399 217.926423 
L 474.377183 216.650814 
L 475.240375 218.691788 
L 476.103568 217.671301 
L 476.96676 216.905936 
L 477.829953 207.721553 
L 478.693145 204.149848 
L 479.556338 196.241074 
L 480.41953 191.648883 
L 481.282723 199.047413 
L 482.145915 201.088387 
L 483.009108 204.40497 
L 483.8723 212.313744 
L 485.598685 215.375205 
L 486.461878 220.987884 
L 487.32507 218.691788 
L 488.188263 222.00837 
L 489.051455 224.304466 
L 489.914648 225.324953 
L 490.77784 227.365927 
L 491.641033 228.641536 
L 492.504225 227.110805 
L 493.367418 225.835197 
L 494.23061 220.732762 
L 495.093803 210.27277 
L 495.956995 198.026927 
L 496.820188 194.455222 
L 497.68338 192.414248 
L 498.546573 186.036205 
L 499.409765 188.3323 
L 500.272958 193.944979 
L 501.13615 195.220587 
L 501.999343 197.771805 
L 502.862535 197.261561 
L 503.725728 203.129361 
L 504.58892 210.783014 
L 505.452113 217.161057 
L 506.315305 219.967397 
L 507.178498 216.650814 
L 508.904883 224.304466 
L 509.768075 226.34544 
L 510.631268 228.896658 
L 511.49446 228.386414 
L 512.357653 226.855684 
L 513.220845 218.94691 
L 514.084038 207.466431 
L 514.94723 179.147917 
L 516.673615 198.53717 
L 517.536808 189.097665 
L 518.4 172.004509 
L 519.263192 177.362065 
L 520.126385 166.136708 
L 520.989577 148.78843 
L 521.85277 174.555726 
L 522.715962 187.311813 
L 523.579155 198.026927 
L 524.442347 198.792292 
L 525.30554 206.445944 
L 526.168732 206.190822 
L 527.031925 213.589353 
L 527.895117 216.650814 
L 527.895117 216.650814 
" style="fill:none;stroke:#ff7f0e;stroke-linecap:square;stroke-width:1.5;"/>
   </g>
   <g id="patch_3">
    <path d="M 72 252 
L 72 34.56 
" style="fill:none;stroke:#000000;stroke-linecap:square;stroke-linejoin:miter;stroke-width:0.8;"/>
   </g>
   <g id="patch_4">
    <path d="M 518.4 252 
L 518.4 34.56 
" style="fill:none;stroke:#000000;stroke-linecap:square;stroke-linejoin:miter;stroke-width:0.8;"/>
   </g>
   <g id="patch_5">
    <path d="M 72 252 
L 518.4 252 
" style="fill:none;stroke:#000000;stroke-linecap:square;stroke-linejoin:miter;stroke-width:0.8;"/>
   </g>
   <g id="patch_6">
    <path d="M 72 34.56 
L 518.4 34.56 
" style="fill:none;stroke:#000000;stroke-linecap:square;stroke-linejoin:miter;stroke-width:0.8;"/>
   </g>
   <g id="legend_1">
    <g id="patch_7">
     <path d="M 429.33125 71.91625 
L 511.4 71.91625 
Q 513.4 71.91625 513.4 69.91625 
L 513.4 41.56 
Q 513.4 39.56 511.4 39.56 
L 429.33125 39.56 
Q 427.33125 39.56 427.33125 41.56 
L 427.33125 69.91625 
Q 427.33125 71.91625 429.33125 71.91625 
z
" style="fill:#ffffff;opacity:0.8;stroke:#cccccc;stroke-linejoin:miter;"/>
    </g>
    <g id="line2d_61">
     <path d="M 431.33125 47.658437 
L 451.33125 47.658437 
" style="fill:none;stroke:#1f77b4;stroke-linecap:square;stroke-width:1.5;"/>
    </g>
    <g id="line2d_62"/>
    <g id="text_30">
     <!-- Prediction -->
     <defs>
      <path d="M 19.671875 64.796875 
L 19.671875 37.40625 
L 32.078125 37.40625 
Q 38.96875 37.40625 42.71875 40.96875 
Q 46.484375 44.53125 46.484375 51.125 
Q 46.484375 57.671875 42.71875 61.234375 
Q 38.96875 64.796875 32.078125 64.796875 
z
M 9.8125 72.90625 
L 32.078125 72.90625 
Q 44.34375 72.90625 50.609375 67.359375 
Q 56.890625 61.8125 56.890625 51.125 
Q 56.890625 40.328125 50.609375 34.8125 
Q 44.34375 29.296875 32.078125 29.296875 
L 19.671875 29.296875 
L 19.671875 0 
L 9.8125 0 
z
" id="DejaVuSans-50"/>
      <path d="M 41.109375 46.296875 
Q 39.59375 47.171875 37.8125 47.578125 
Q 36.03125 48 33.890625 48 
Q 26.265625 48 22.1875 43.046875 
Q 18.109375 38.09375 18.109375 28.8125 
L 18.109375 0 
L 9.078125 0 
L 9.078125 54.6875 
L 18.109375 54.6875 
L 18.109375 46.1875 
Q 20.953125 51.171875 25.484375 53.578125 
Q 30.03125 56 36.53125 56 
Q 37.453125 56 38.578125 55.875 
Q 39.703125 55.765625 41.0625 55.515625 
z
" id="DejaVuSans-72"/>
      <path d="M 45.40625 46.390625 
L 45.40625 75.984375 
L 54.390625 75.984375 
L 54.390625 0 
L 45.40625 0 
L 45.40625 8.203125 
Q 42.578125 3.328125 38.25 0.953125 
Q 33.9375 -1.421875 27.875 -1.421875 
Q 17.96875 -1.421875 11.734375 6.484375 
Q 5.515625 14.40625 5.515625 27.296875 
Q 5.515625 40.1875 11.734375 48.09375 
Q 17.96875 56 27.875 56 
Q 33.9375 56 38.25 53.625 
Q 42.578125 51.265625 45.40625 46.390625 
z
M 14.796875 27.296875 
Q 14.796875 17.390625 18.875 11.75 
Q 22.953125 6.109375 30.078125 6.109375 
Q 37.203125 6.109375 41.296875 11.75 
Q 45.40625 17.390625 45.40625 27.296875 
Q 45.40625 37.203125 41.296875 42.84375 
Q 37.203125 48.484375 30.078125 48.484375 
Q 22.953125 48.484375 18.875 42.84375 
Q 14.796875 37.203125 14.796875 27.296875 
z
" id="DejaVuSans-64"/>
      <path d="M 9.421875 54.6875 
L 18.40625 54.6875 
L 18.40625 0 
L 9.421875 0 
z
M 9.421875 75.984375 
L 18.40625 75.984375 
L 18.40625 64.59375 
L 9.421875 64.59375 
z
" id="DejaVuSans-69"/>
      <path d="M 18.3125 70.21875 
L 18.3125 54.6875 
L 36.8125 54.6875 
L 36.8125 47.703125 
L 18.3125 47.703125 
L 18.3125 18.015625 
Q 18.3125 11.328125 20.140625 9.421875 
Q 21.96875 7.515625 27.59375 7.515625 
L 36.8125 7.515625 
L 36.8125 0 
L 27.59375 0 
Q 17.1875 0 13.234375 3.875 
Q 9.28125 7.765625 9.28125 18.015625 
L 9.28125 47.703125 
L 2.6875 47.703125 
L 2.6875 54.6875 
L 9.28125 54.6875 
L 9.28125 70.21875 
z
" id="DejaVuSans-74"/>
      <path d="M 30.609375 48.390625 
Q 23.390625 48.390625 19.1875 42.75 
Q 14.984375 37.109375 14.984375 27.296875 
Q 14.984375 17.484375 19.15625 11.84375 
Q 23.34375 6.203125 30.609375 6.203125 
Q 37.796875 6.203125 41.984375 11.859375 
Q 46.1875 17.53125 46.1875 27.296875 
Q 46.1875 37.015625 41.984375 42.703125 
Q 37.796875 48.390625 30.609375 48.390625 
z
M 30.609375 56 
Q 42.328125 56 49.015625 48.375 
Q 55.71875 40.765625 55.71875 27.296875 
Q 55.71875 13.875 49.015625 6.21875 
Q 42.328125 -1.421875 30.609375 -1.421875 
Q 18.84375 -1.421875 12.171875 6.21875 
Q 5.515625 13.875 5.515625 27.296875 
Q 5.515625 40.765625 12.171875 48.375 
Q 18.84375 56 30.609375 56 
z
" id="DejaVuSans-6f"/>
      <path d="M 54.890625 33.015625 
L 54.890625 0 
L 45.90625 0 
L 45.90625 32.71875 
Q 45.90625 40.484375 42.875 44.328125 
Q 39.84375 48.1875 33.796875 48.1875 
Q 26.515625 48.1875 22.3125 43.546875 
Q 18.109375 38.921875 18.109375 30.90625 
L 18.109375 0 
L 9.078125 0 
L 9.078125 54.6875 
L 18.109375 54.6875 
L 18.109375 46.1875 
Q 21.34375 51.125 25.703125 53.5625 
Q 30.078125 56 35.796875 56 
Q 45.21875 56 50.046875 50.171875 
Q 54.890625 44.34375 54.890625 33.015625 
z
" id="DejaVuSans-6e"/>
     </defs>
     <g transform="translate(459.33125 51.158437)scale(0.1 -0.1)">
      <use xlink:href="#DejaVuSans-50"/>
      <use x="60.287109" xlink:href="#DejaVuSans-72"/>
      <use x="101.369141" xlink:href="#DejaVuSans-65"/>
      <use x="162.892578" xlink:href="#DejaVuSans-64"/>
      <use x="226.369141" xlink:href="#DejaVuSans-69"/>
      <use x="254.152344" xlink:href="#DejaVuSans-63"/>
      <use x="309.132812" xlink:href="#DejaVuSans-74"/>
      <use x="348.341797" xlink:href="#DejaVuSans-69"/>
      <use x="376.125" xlink:href="#DejaVuSans-6f"/>
      <use x="437.306641" xlink:href="#DejaVuSans-6e"/>
     </g>
    </g>
    <g id="line2d_63">
     <path d="M 431.33125 62.336562 
L 451.33125 62.336562 
" style="fill:none;stroke:#ff7f0e;stroke-linecap:square;stroke-width:1.5;"/>
    </g>
    <g id="line2d_64"/>
    <g id="text_31">
     <!-- Data -->
     <defs>
      <path d="M 34.28125 27.484375 
Q 23.390625 27.484375 19.1875 25 
Q 14.984375 22.515625 14.984375 16.5 
Q 14.984375 11.71875 18.140625 8.90625 
Q 21.296875 6.109375 26.703125 6.109375 
Q 34.1875 6.109375 38.703125 11.40625 
Q 43.21875 16.703125 43.21875 25.484375 
L 43.21875 27.484375 
z
M 52.203125 31.203125 
L 52.203125 0 
L 43.21875 0 
L 43.21875 8.296875 
Q 40.140625 3.328125 35.546875 0.953125 
Q 30.953125 -1.421875 24.3125 -1.421875 
Q 15.921875 -1.421875 10.953125 3.296875 
Q 6 8.015625 6 15.921875 
Q 6 25.140625 12.171875 29.828125 
Q 18.359375 34.515625 30.609375 34.515625 
L 43.21875 34.515625 
L 43.21875 35.40625 
Q 43.21875 41.609375 39.140625 45 
Q 35.0625 48.390625 27.6875 48.390625 
Q 23 48.390625 18.546875 47.265625 
Q 14.109375 46.140625 10.015625 43.890625 
L 10.015625 52.203125 
Q 14.9375 54.109375 19.578125 55.046875 
Q 24.21875 56 28.609375 56 
Q 40.484375 56 46.34375 49.84375 
Q 52.203125 43.703125 52.203125 31.203125 
z
" id="DejaVuSans-61"/>
     </defs>
     <g transform="translate(459.33125 65.836562)scale(0.1 -0.1)">
      <use xlink:href="#DejaVuSans-44"/>
      <use x="77.001953" xlink:href="#DejaVuSans-61"/>
      <use x="138.28125" xlink:href="#DejaVuSans-74"/>
      <use x="177.490234" xlink:href="#DejaVuSans-61"/>
     </g>
    </g>
   </g>
  </g>
 </g>
 <defs>
  <clipPath id="p1bbbb7761f">
   <rect height="217.44" width="446.4" x="72" y="34.56"/>
  </clipPath>
 </defs>
</svg>
